<?xml version="1.0" standalone="no"?>
<!DOCTYPE svg PUBLIC "-//W3C//DTD SVG 20010904//EN"
 "http://www.w3.org/TR/2001/REC-SVG-20010904/DTD/svg10.dtd">
<svg version="1.0" xmlns="http://www.w3.org/2000/svg"
 width="165.000000pt" height="256.000000pt" viewBox="0 0 165.000000 256.000000"
 preserveAspectRatio="xMidYMid meet">

<g transform="translate(0.000000,256.000000) scale(0.100000,-0.100000)"
fill="#51A3A3" stroke="none">
<path d="M716 2193 l7 -366 -159 6 c-506 20 -566 21 -563 4 2 -9 55 -73 118
-143 l114 -126 247 4 247 4 7 -336 c3 -184 7 -497 8 -695 1 -404 6 -545 18
-545 5 0 25 30 46 67 21 38 46 82 56 98 16 27 55 95 85 149 9 16 14 169 19
551 4 292 8 537 10 545 1 8 3 52 3 96 l1 82 123 1 c67 1 165 4 217 8 l95 6
117 89 c65 49 118 92 118 97 0 12 -75 18 -245 20 -82 1 -211 4 -285 7 l-135 6
3 143 3 143 -57 98 c-32 55 -65 113 -74 129 -9 17 -23 41 -31 55 -9 14 -35 58
-59 98 -23 39 -46 72 -51 72 -6 0 -6 -151 -3 -367z"/>
</g>
</svg>
