<?xml version="1.0" standalone="no"?>
<!DOCTYPE svg PUBLIC "-//W3C//DTD SVG 20010904//EN"
 "http://www.w3.org/TR/2001/REC-SVG-20010904/DTD/svg10.dtd">
<svg version="1.0" xmlns="http://www.w3.org/2000/svg"
 width="206.000000pt" height="320.000000pt" viewBox="0 0 206.000000 320.000000"
 preserveAspectRatio="xMidYMid meet">

<g transform="translate(0.000000,320.000000) scale(0.100000,-0.100000)"
fill="#000000" stroke="none">
<path d="M892 2744 l4 -457 -136 7 c-74 3 -276 9 -447 13 -271 5 -313 4 -313
-8 0 -17 68 -101 196 -242 l89 -98 307 1 306 1 6 -93 c4 -51 11 -482 16 -958
5 -476 12 -875 16 -887 13 -47 20 -39 160 208 49 86 91 173 96 197 4 24 12
305 18 625 5 320 13 660 16 755 l7 172 121 0 c66 0 188 5 269 10 141 9 151 11
185 38 194 149 252 197 252 207 0 18 -55 23 -315 30 -126 3 -293 8 -370 11
l-140 6 3 178 3 178 -132 228 c-159 277 -195 334 -210 334 -8 0 -10 -121 -7
-456z"/>
</g>
</svg>
